<svg xmlns="http://www.w3.org/2000/svg" xmlns:xlink="http://www.w3.org/1999/xlink" width="663.857" height="618" viewBox="0 0 663.857 618">
  <defs>
    <clipPath id="clip-path">
      <rect id="Rectangle_20" data-name="Rectangle 20" width="663.857" height="618" fill="#282828"/>
    </clipPath>
  </defs>
  <g id="full-bg" opacity="0.05">
    <g id="Group_4" data-name="Group 4" clip-path="url(#clip-path)">
      <path id="Path_54" data-name="Path 54" d="M611.28,243.831a16.123,16.123,0,0,1-11.4-27.52l4.968-4.98A91.559,91.559,0,1,0,475.36,81.847L353.428,203.779a30.39,30.39,0,0,1-42.927,0L188.563,81.835a91.68,91.68,0,0,0-129.417-.073l-.091.085a91.59,91.59,0,0,0,0,129.5l4.974,4.962a16.125,16.125,0,0,1-22.8,22.807l-4.968-4.974a123.806,123.806,0,0,1-.085-175,.473.473,0,0,1,.091-.1,123.942,123.942,0,0,1,175.092,0l120.6,120.6,120.592-120.6A123.02,123.02,0,0,1,540.1,22.78h.006a123.809,123.809,0,0,1,87.546,211.352l-4.968,4.98a16.1,16.1,0,0,1-11.4,4.719" transform="translate(0 115.396)" fill="#282828"/>
      <path id="Path_55" data-name="Path 55" d="M242.668,286.114a65.3,65.3,0,0,1-46.5-19.265L22.351,93.038A16.123,16.123,0,0,1,45.158,70.243L218.963,244.049a33.52,33.52,0,0,0,47.4,0L440.16,70.243a16.123,16.123,0,0,1,22.807,22.795L289.161,266.856a65.317,65.317,0,0,1-46.493,19.258" transform="translate(89.3 331.886)" fill="#282828"/>
      <path id="Path_56" data-name="Path 56" d="M270.414,357.41a16.159,16.159,0,0,1-11.4-4.719L26.823,120.5a50.126,50.126,0,1,1,70.883-70.9L212.372,164.267a16.123,16.123,0,1,1-22.8,22.8L74.905,72.415A17.877,17.877,0,0,0,49.618,97.69l220.8,220.8L491.192,97.69a17.87,17.87,0,1,0-25.27-25.276L351.227,187.1A16.123,16.123,0,0,1,328.432,164.3L443.11,49.614A50.122,50.122,0,0,1,514,120.491l-232.182,232.2a16.159,16.159,0,0,1-11.4,4.719" transform="translate(61.548 176.939)" fill="#282828"/>
      <path id="Path_57" data-name="Path 57" d="M139.6,203.267A101.633,101.633,0,1,1,241.233,101.63,101.741,101.741,0,0,1,139.6,203.267m0-171.015a69.382,69.382,0,1,0,69.379,69.379A69.457,69.457,0,0,0,139.6,32.251" transform="translate(192.354 0)" fill="#282828"/>
    </g>
  </g>
</svg>
