<svg xmlns="http://www.w3.org/2000/svg" xmlns:xlink="http://www.w3.org/1999/xlink" width="34" height="32" viewBox="0 0 34 32">
  <defs>
    <clipPath id="clip-path">
      <rect id="Rectangle_180" data-name="Rectangle 180" width="34" height="32" transform="translate(-16688 -8925)" fill="#fff" opacity="0.4"/>
    </clipPath>
    <clipPath id="clip-path-2">
      <rect id="Rectangle_111" data-name="Rectangle 111" width="140" height="32.034" transform="translate(0 0)" fill="none"/>
    </clipPath>
  </defs>
  <g id="Mask_Group_1" data-name="Mask Group 1" transform="translate(16688 8925)" clip-path="url(#clip-path)">
    <g id="Group_378" data-name="Group 378" transform="translate(-16688 -8925)">
      <g id="Group_225" data-name="Group 225" transform="translate(0 0)" clip-path="url(#clip-path-2)">
        <path id="Path_129" data-name="Path 129" d="M120.584,15.229V9.084h1.852v6.011a1.807,1.807,0,1,0,3.609,0V9.084H127.9v6.145a3.657,3.657,0,0,1-7.312,0" transform="translate(-78.447 -5.91)" fill="#282828"/>
        <path id="Path_130" data-name="Path 130" d="M150.3,14.934h-.966V18.6h-1.865V9.084h3.717a2.854,2.854,0,0,1,3.032,2.925,2.7,2.7,0,0,1-2.026,2.7l2.039,3.891h-2.066Zm.536-1.6a1.331,1.331,0,1,0,0-2.643h-1.5v2.643Z" transform="translate(-95.936 -5.91)" fill="#282828"/>
        <path id="Path_131" data-name="Path 131" d="M177.529,18.221l-.121-1.086a3.278,3.278,0,0,1-2.8,1.287,4.685,4.685,0,0,1-4.75-4.95,4.783,4.783,0,0,1,4.87-4.964,4.3,4.3,0,0,1,4.347,2.924l-1.771.631a2.54,2.54,0,0,0-2.576-1.824,2.965,2.965,0,0,0-2.992,3.233,2.974,2.974,0,0,0,3,3.26,2.388,2.388,0,0,0,2.55-1.851h-3.006V13.27h4.749v4.951Z" transform="translate(-110.501 -5.534)" fill="#282828"/>
        <path id="Path_132" data-name="Path 132" d="M201.459,18.6V9.084h5.957v1.744h-4.106V13h3.717v1.65h-3.717v2.2h4.106V18.6Z" transform="translate(-131.062 -5.91)" fill="#282828"/>
        <path id="Path_133" data-name="Path 133" d="M229.98,18.6l-4.32-6.748V18.6h-1.852V9.084h2.308l3.958,6.292V9.084h1.852V18.6Z" transform="translate(-145.601 -5.91)" fill="#282828"/>
        <path id="Path_134" data-name="Path 134" d="M255.638,10.842V18.6h-1.865V10.842h-3.006V9.084h7.876v1.757Z" transform="translate(-163.14 -5.91)" fill="#282828"/>
        <path id="Path_135" data-name="Path 135" d="M284.906,13.47a4.8,4.8,0,0,1,4.843-4.964,4.189,4.189,0,0,1,4.361,3.153l-1.745.55a2.487,2.487,0,0,0-2.616-1.918,2.931,2.931,0,0,0-2.925,3.18,2.934,2.934,0,0,0,2.952,3.14,2.643,2.643,0,0,0,2.67-1.945l1.731.523a4.326,4.326,0,0,1-4.4,3.233,4.75,4.75,0,0,1-4.87-4.951" transform="translate(-185.349 -5.534)" fill="#282828"/>
        <path id="Path_136" data-name="Path 136" d="M319.748,16.423h-3.864l-.792,2.174h-1.958l3.649-9.512h2.147l3.622,9.512h-2.013ZM316.5,14.732h2.63l-1.315-3.6Z" transform="translate(-203.713 -5.91)" fill="#282828"/>
        <path id="Path_137" data-name="Path 137" d="M346.417,14.934h-.966V18.6h-1.865V9.084H347.3a2.854,2.854,0,0,1,3.032,2.925,2.7,2.7,0,0,1-2.026,2.7l2.039,3.891h-2.066Zm.536-1.6a1.331,1.331,0,1,0,0-2.643h-1.5v2.643Z" transform="translate(-223.524 -5.91)" fill="#282828"/>
        <path id="Path_138" data-name="Path 138" d="M367.586,18.6V9.084h5.957v1.744h-4.106V13h3.717v1.65h-3.717v2.2h4.106V18.6Z" transform="translate(-239.138 -5.91)" fill="#282828"/>
        <path id="Path_139" data-name="Path 139" d="M391.467,1.621a1.6,1.6,0,1,1,3.207,0,1.6,1.6,0,1,1-3.207,0m.23,0a1.375,1.375,0,1,0,2.749,0,1.375,1.375,0,1,0-2.749,0m1.088.872h-.22V.731h.577a.524.524,0,0,1,.559.525.507.507,0,0,1-.414.507l.424.731h-.26l-.405-.713h-.26Zm.326-.907c.229,0,.37-.123.37-.326a.326.326,0,0,0-.37-.335h-.326v.661Z" transform="translate(-254.674 0)" fill="#282828"/>
        <path id="Path_140" data-name="Path 140" d="M102.584,46.326a1.6,1.6,0,1,1,1.6,1.617,1.605,1.605,0,0,1-1.6-1.617m.23,0a1.375,1.375,0,1,0,1.374-1.409,1.377,1.377,0,0,0-1.374,1.409m1.088.872h-.22V45.436h.577a.524.524,0,0,1,.559.525.507.507,0,0,1-.414.507l.424.731h-.26l-.405-.713h-.26Zm.326-.907c.229,0,.37-.123.37-.326a.326.326,0,0,0-.37-.335H103.9v.661Z" transform="translate(-66.737 -29.083)" fill="#282828"/>
        <path id="Path_141" data-name="Path 141" d="M242.834,81.919a1.129,1.129,0,1,1-1.129,1.127,1.1,1.1,0,0,1,1.129-1.127" transform="translate(-157.244 -53.293)" fill="#282828"/>
        <path id="Path_142" data-name="Path 142" d="M155.546,81.919a1.129,1.129,0,1,1-1.129,1.127,1.1,1.1,0,0,1,1.129-1.127" transform="translate(-100.458 -53.293)" fill="#282828"/>
        <path id="Path_143" data-name="Path 143" d="M250.492,81.919a1.129,1.129,0,1,1-1.129,1.127,1.1,1.1,0,0,1,1.129-1.127" transform="translate(-162.226 -53.293)" fill="#282828"/>
        <path id="Path_144" data-name="Path 144" d="M228.918,51.972a1.129,1.129,0,1,1-1.129,1.127,1.1,1.1,0,0,1,1.129-1.127" transform="translate(-148.191 -33.811)" fill="#282828"/>
        <path id="Path_145" data-name="Path 145" d="M236.576,51.972a1.129,1.129,0,1,1-1.129,1.127,1.1,1.1,0,0,1,1.129-1.127" transform="translate(-153.173 -33.811)" fill="#282828"/>
        <path id="Path_146" data-name="Path 146" d="M119.831,51.972A1.129,1.129,0,1,1,118.7,53.1a1.1,1.1,0,0,1,1.129-1.127" transform="translate(-77.223 -33.811)" fill="#282828"/>
        <path id="Path_147" data-name="Path 147" d="M127.488,51.972a1.129,1.129,0,1,1-1.129,1.127,1.1,1.1,0,0,1,1.129-1.127" transform="translate(-82.204 -33.811)" fill="#282828"/>
        <path id="Path_148" data-name="Path 148" d="M296.819,69.07a1.687,1.687,0,0,0,1.812-1.9V59.713h1.851V67.3a3.406,3.406,0,0,1-3.663,3.582" transform="translate(-193.099 -38.847)" fill="#282828"/>
        <rect id="Rectangle_108" data-name="Rectangle 108" width="1.811" height="5.887" transform="translate(91.538 18.635)" fill="#282828"/>
        <path id="Path_149" data-name="Path 149" d="M263.769,70.175a1.687,1.687,0,0,0,1.9,1.812h6.79v1.851H265.54a3.406,3.406,0,0,1-3.582-3.663" transform="translate(-170.42 -45.653)" fill="#282828"/>
        <path id="Path_150" data-name="Path 150" d="M279.676,59.713h2.684v1.852H279.81a1.807,1.807,0,1,0,0,3.609h2.551v1.851h-2.684a3.657,3.657,0,0,1,0-7.312" transform="translate(-179.616 -38.847)" fill="#282828"/>
        <rect id="Rectangle_109" data-name="Rectangle 109" width="1.811" height="5.887" transform="translate(60.692 18.635)" fill="#282828"/>
        <path id="Path_151" data-name="Path 151" d="M175.5,70.175a1.687,1.687,0,0,0,1.9,1.812h8.891v1.851h-9.024a3.406,3.406,0,0,1-3.582-3.663" transform="translate(-112.993 -45.653)" fill="#282828"/>
        <rect id="Rectangle_110" data-name="Rectangle 110" width="1.811" height="5.887" transform="translate(50.284 18.635)" fill="#282828"/>
        <path id="Path_152" data-name="Path 152" d="M140.322,70.175a1.687,1.687,0,0,1-1.9,1.812H138.4v1.851h.151a3.406,3.406,0,0,0,3.582-3.663" transform="translate(-90.038 -45.653)" fill="#282828"/>
        <path id="Path_153" data-name="Path 153" d="M197.416,59.713H200.1v1.852H197.55a1.807,1.807,0,1,0,0,3.609H200.1v1.851h-2.684a3.657,3.657,0,0,1,0-7.312" transform="translate(-126.101 -38.847)" fill="#282828"/>
        <path id="Path_154" data-name="Path 154" d="M145.42,67.025h-7.368V65.173h7.234a1.807,1.807,0,1,0,0-3.609h-2.551V59.713h2.684a3.657,3.657,0,0,1,0,7.312" transform="translate(-89.811 -38.847)" fill="#282828"/>
        <path id="Path_155" data-name="Path 155" d="M242.566,61.209V63.76a1.687,1.687,0,0,1-1.812,1.9,1.622,1.622,0,0,1-1.75-1.4h-1.883a3.662,3.662,0,0,0,7.3-.37V61.209Z" transform="translate(-154.262 -39.82)" fill="#282828"/>
        <path id="Path_156" data-name="Path 156" d="M124.706,65.274v-.992a1.559,1.559,0,0,0-1.559-1.559H120.1v1.854c.038,0,.07,0,.108,0h2.649v.833a3.4,3.4,0,0,0,3.638,3.582V67.139a1.658,1.658,0,0,1-1.787-1.865" transform="translate(-78.131 -40.805)" fill="#282828"/>
        <path id="Path_157" data-name="Path 157" d="M233.794,63.759v-.992a1.559,1.559,0,0,0-1.559-1.559h-3.05v1.854c.038,0,.07,0,.108,0h2.649v.833a3.4,3.4,0,0,0,3.638,3.582V65.664a1.689,1.689,0,0,1-1.787-1.9" transform="translate(-149.1 -39.82)" fill="#282828"/>
        <path id="Path_158" data-name="Path 158" d="M31.192,32.17a.823.823,0,0,1-.582-1.4l.253-.254A4.672,4.672,0,1,0,24.256,23.9l-6.222,6.222a1.551,1.551,0,0,1-2.19,0L9.622,23.9a4.678,4.678,0,0,0-6.6,0l0,0a4.674,4.674,0,0,0,0,6.608l.254.253A.823.823,0,1,1,2.1,31.929l-.254-.254a6.318,6.318,0,0,1,0-8.93l0,0a6.324,6.324,0,0,1,8.934,0l6.154,6.154,6.153-6.154A6.278,6.278,0,0,1,27.56,20.89h0a6.318,6.318,0,0,1,4.467,10.785l-.254.254a.823.823,0,0,1-.582.241" transform="translate(0 -13.59)" fill="#ea5c1c"/>
        <path id="Path_159" data-name="Path 159" d="M27.1,70a3.332,3.332,0,0,1-2.373-.983l-8.869-8.869a.823.823,0,0,1,1.164-1.163l8.869,8.869a1.711,1.711,0,0,0,2.419,0l8.868-8.869a.823.823,0,0,1,1.163,1.163L29.47,69.019A3.334,3.334,0,0,1,27.1,70" transform="translate(-10.158 -38.217)" fill="#ea5c1c"/>
        <path id="Path_160" data-name="Path 160" d="M23.94,48.106a.825.825,0,0,1-.582-.241L11.51,36.018A2.558,2.558,0,0,1,15.128,32.4l5.851,5.851a.823.823,0,0,1-1.163,1.163l-5.851-5.85a.912.912,0,0,0-1.29,1.29L23.94,46.12,35.206,34.854a.912.912,0,1,0-1.289-1.29l-5.852,5.852A.823.823,0,1,1,26.9,38.252L32.752,32.4a2.558,2.558,0,0,1,3.617,3.617L24.522,47.866a.825.825,0,0,1-.582.241" transform="translate(-7.001 -20.591)" fill="#ea5c1c"/>
        <path id="Path_161" data-name="Path 161" d="M38.819,11.086A5.186,5.186,0,1,1,44,5.9a5.192,5.192,0,0,1-5.186,5.186m0-8.726a3.54,3.54,0,1,0,3.54,3.54,3.545,3.545,0,0,0-3.54-3.54" transform="translate(-21.88 -0.465)" fill="#ea5c1c"/>
      </g>
    </g>
  </g>
</svg>
